<svg fill="#ffffff" xmlns="http://www.w3.org/2000/svg" viewBox="0 0 249.75 151.38">
	<g>
		<g>
			<path d="M241.25,1.33V5.05h-1.59V1.33H238.2V0h4.51V1.33Zm7.1,3.72V2.77c0-.81,0-1.41,0-1.82h0c-.17.8-.3,1.39-.4,1.79l-.54,2.31h-1.86L245,2.74l-.13-.6c0-.13-.06-.29-.11-.49s-.09-.43-.14-.7h0c0,.82,0,1.42,0,1.82V5.05h-1.41V0h2.4l.49,2c.14.59.26,1.21.37,1.86h0q.13-.9.36-1.86l.48-2h2.41V5.05Z" />
			<path d="M0,151.38V37.63H24.34v8.45c3.48-5.3,12.42-10.43,24.17-10.43,23.85,0,38.25,18.21,38.25,42.88,0,25.17-16.23,43.21-39.24,43.21-10.6,0-18.54-3.64-22.35-8.27v37.91Zm43.38-93c-9.77,0-18.54,6.62-18.54,20.37,0,13.57,8.77,20.53,18.54,20.53,9.93,0,18.71-6.79,18.71-20.53S53.31,58.33,43.38,58.33Z" />
			<path d="M148,62.47a34.35,34.35,0,0,0-8-.83c-10.1,0-19.21,6-19.21,22.35v35.93H95.7V37.63H120v11.1c4.3-9.28,14.73-11.92,21.36-11.92a25.19,25.19,0,0,1,6.62.82Z" />
			<path d="M142.55,119.92,168.05.05h25.17l-25.5,119.87Z" />
			<path d="M182.62,119.92,208.12.05h25.16L207.79,119.92Z" />
		</g>
	</g>
</svg>
